<svg xmlns="http://www.w3.org/2000/svg" xmlns:xlink="http://www.w3.org/1999/xlink" width="500" zoomAndPan="magnify" viewBox="0 0 375 374.999991" height="500" preserveAspectRatio="xMidYMid meet" version="1.0"><rect x="-37.5" width="450" fill="#ffffff" y="-37.499999" height="449.999989" fill-opacity="1"/><path fill="#000000" d="M 191.710938 101.316406 C 178.289062 103.765625 157.855469 111.394531 157.855469 113.960938 C 157.855469 114.546875 158.0625 115.027344 158.3125 115.027344 C 160.230469 115.027344 187.683594 119.292969 191.898438 120.25 C 195.402344 121.042969 198.867188 122.550781 202.042969 124.671875 C 207.363281 128.226562 225.867188 146.253906 242.023438 163.621094 C 247.761719 169.789062 252.925781 174.835938 253.5 174.835938 C 254.078125 174.835938 257.496094 171.578125 261.09375 167.589844 C 264.695312 163.605469 271.445312 156.472656 276.101562 151.742188 C 280.753906 147.011719 284.558594 142.5 284.558594 141.71875 C 284.558594 138.824219 271.871094 125.492188 261.585938 117.585938 C 251.878906 110.117188 235.910156 103.609375 221.601562 101.292969 C 212.621094 99.835938 199.773438 99.847656 191.710938 101.316406 M 140.042969 126.492188 C 138.585938 128.039062 137.394531 129.609375 137.394531 129.980469 C 137.394531 130.355469 136.703125 130.878906 135.859375 131.148438 C 134.082031 131.710938 127.984375 139.277344 123.796875 146.113281 C 119.726562 152.753906 115.589844 162.644531 113.15625 171.554688 C 111.246094 178.550781 111.078125 180.402344 111.058594 194.511719 C 111.042969 208.136719 111.246094 210.609375 112.863281 216.546875 C 114.792969 223.636719 118.734375 233.300781 119.824219 233.617188 C 120.179688 233.71875 122.675781 229.300781 125.367188 223.800781 C 132.503906 209.199219 142.382812 193.050781 149.214844 184.804688 C 158.085938 174.105469 169.765625 161.84375 175.308594 157.414062 C 182.039062 152.03125 192.257812 146.617188 199.832031 144.414062 C 203.324219 143.398438 206.511719 142.234375 206.921875 141.824219 C 207.988281 140.761719 197.585938 130.214844 194.542969 129.273438 C 191.546875 128.347656 182.980469 127.046875 175.5625 126.390625 C 172.53125 126.121094 165.628906 125.402344 160.222656 124.792969 C 144.683594 123.039062 143.183594 123.167969 140.042969 126.492188 M 149.433594 199.441406 C 148.109375 200.84375 146.117188 203.453125 145.007812 205.246094 C 140.9375 211.828125 126.375 241.707031 126.375 243.484375 C 126.375 245.734375 127.671875 247.703125 133.652344 254.527344 C 150.945312 274.265625 166.363281 283.421875 188.941406 287.363281 C 200.171875 289.324219 202.910156 289.535156 203.265625 288.46875 C 203.675781 287.246094 199.335938 282.175781 185.851562 268.132812 C 181.746094 263.851562 171.554688 250.929688 167.515625 244.878906 C 158.164062 230.871094 155.339844 223.40625 153.535156 207.933594 C 152.855469 202.113281 152.199219 197.25 152.074219 197.125 C 151.949219 197 150.761719 198.042969 149.433594 199.441406 M 256.847656 200.628906 C 256.019531 200.804688 253.78125 204.453125 251.058594 210.074219 C 247.398438 217.628906 245.707031 220.148438 241.390625 224.445312 C 235.875 229.9375 227.066406 235.664062 221.425781 237.425781 L 218.058594 238.476562 L 223.457031 238.53125 C 231.988281 238.613281 237.210938 236.742188 258.195312 226.097656 C 269.015625 220.609375 282.785156 213.832031 288.789062 211.039062 C 296.496094 207.453125 299.953125 205.425781 300.535156 204.148438 C 301.035156 203.046875 301.074219 202.074219 300.632812 201.660156 C 299.929688 201.003906 259.582031 200.050781 256.847656 200.628906 M 164.535156 220.4375 C 166.40625 225.765625 172.488281 235.980469 177.453125 242.125 C 179.902344 245.15625 182.757812 248.875 183.804688 250.386719 C 185.492188 252.835938 196.199219 265.402344 199.222656 268.488281 C 199.863281 269.136719 202.972656 272.863281 206.132812 276.765625 C 213.140625 285.410156 216.296875 288.164062 219.199219 288.164062 C 223.011719 288.164062 236.128906 284.476562 242.964844 281.484375 C 250.171875 278.328125 259.789062 272.621094 264.097656 268.945312 C 278.195312 256.910156 289.324219 241.652344 294.742188 226.921875 C 297.21875 220.199219 297.714844 217.335938 296.40625 217.335938 C 295.996094 217.335938 283.160156 223.550781 267.878906 231.148438 C 243.574219 243.230469 239.308594 245.101562 233.800781 246.074219 C 225.652344 247.511719 214.875 247.484375 207.4375 246.003906 C 204.1875 245.355469 200.472656 244.617188 199.171875 244.363281 C 197.875 244.105469 196.457031 243.632812 196.023438 243.316406 C 195.589844 242.996094 194.289062 242.507812 193.128906 242.230469 C 187.167969 240.808594 173.441406 229.683594 165.8125 220.089844 L 163.3125 216.941406 Z M 164.535156 220.4375 " fill-opacity="1" fill-rule="evenodd"/></svg>